#!OML:ASF H:\ManfredObstacles\Project 1\Capture day 2\Session 1\male.ASF
:FULLY-SPECIFIED
:DEGREES
230
root 1.91705 7.19031 10.3574 -125.466 -3.98575 -188.124
lowerback 44.4741 -7.61027 9.91278
upperback 6.69365 -8.59564 -9.09505
thorax -16.0209 -5.03275 -10.8449
lowerneck -26.4503 3.94722 13.7809
upperneck 16.4978 -1.27287 3.78123
head 9.60979 0.575353 -1.04733
rclavicle 4.31363e-014 1.12049e-014
rhumerus 4.83052 16.0517 -82.624
rradius 93.6683
rwrist 42.3745
rhand -42.0258 -8.17583
rfingers 7.12502
rthumb -14.92 -37.6185
lclavicle 4.31363e-014 1.12049e-014
lhumerus 10.8381 -16.0451 41.0815
lradius 97.1874
lwrist -30.3071
lhand -44.9175 24.318
lfingers 7.12502
lthumb -17.7043 53.532
rfemur -96.1789 -22.6794 30.6696
rtibia 145.755
rfoot 29.0493 -2.0587
rtoes -19.0217
lfemur -80.6405 3.69659 -25.6992
ltibia 142.233
lfoot 7.05744 8.32278
ltoes 1.12018
231
root 1.95361 7.22466 10.2579 -124.663 -4.15192 -188.598
lowerback 44.1593 -7.59235 9.77084
upperback 6.43368 -8.57957 -9.02336
thorax -16.2179 -5.0172 -10.7144
lowerneck -26.4649 3.86015 13.6956
upperneck 16.5369 -1.36083 3.80718
head 9.62198 0.538283 -1.03872
rclavicle 8.28932e-014 8.27946e-014
rhumerus 3.49005 15.8036 -83.3985
rradius 93.7724
rwrist 43.1103
rhand -42.4707 -8.13877
rfingers 7.12502
rthumb -15.3486 -37.5491
lclavicle 8.28932e-014 8.27946e-014
lhumerus 12.912 -15.1049 40.8289
lradius 97.596
lwrist -30.5482
lhand -44.3813 23.7201
lfingers 7.12502
lthumb -17.1882 52.9799
rfemur -96.1755 -21.6858 30.5099
rtibia 145.124
rfoot 29.771 -2.31762
rtoes -18.8386
lfemur -80.6367 3.02497 -25.1901
ltibia 141.433
lfoot 6.33251 8.12739
ltoes -0.299609
232
root 1.99073 7.26453 10.1573 -123.912 -4.26373 -189.029
lowerback 43.9519 -7.55383 9.61552
upperback 6.16682 -8.54824 -8.97939
thorax -16.4565 -4.99747 -10.6127
lowerneck -26.4456 3.76705 13.6443
upperneck 16.5025 -1.45037 3.80824
head 9.60131 0.494545 -1.04456
rclavicle -4.6615e-014 7.6501e-015
rhumerus 2.2107 15.5409 -84.1093
rradius 93.7861
rwrist 43.6804
rhand -42.9339 -8.03525
rfingers 7.12502
rthumb -15.7947 -37.4109
lclavicle -4.6615e-014 7.6501e-015
lhumerus 15.2047 -14.1006 40.4807
lradius 97.8419
lwrist -30.595
lhand -43.652 23.1899
lfingers 7.12502
lthumb -16.4861 52.5094
rfemur -96.173 -20.7397 30.357
rtibia 144.509
rfoot 30.1652 -2.51685
rtoes -19.1553
lfemur -80.526 2.42832 -24.7238
ltibia 140.573
lfoot 5.63611 8.09759
ltoes -1.68829
233
root 2.02679 7.30912 10.0547 -123.235 -4.32696 -189.398
lowerback 43.8543 -7.50006 9.48694
upperback 5.90784 -8.49618 -8.98349
thorax -16.7282 -4.97439 -10.5883
lowerneck -26.3779 3.65711 13.6487
upperneck 16.3952 -1.56686 3.80141
head 9.54501 0.435119 -1.06601
rclavicle -7.62836e-014 -1.47079e-014
rhumerus 0.980234 15.2332 -84.78
rradius 93.7267
rwrist 44.0657
rhand -43.394 -7.83975
rfingers 7.12502
rthumb -16.2377 -37.1798
lclavicle -7.62836e-014 -1.47079e-014
lhumerus 17.7117 -13.074 40.0803
lradius 97.8988
lwrist -30.4606
lhand -42.6869 22.6839
lfingers 7.12502
lthumb -15.5569 52.0782
rfemur -96.0874 -19.9004 30.1944
rtibia 143.923
rfoot 30.0717 -2.65907
rtoes -19.9673
lfemur -80.2689 1.92646 -24.3047
ltibia 139.653
lfoot 5.01097 8.23574
ltoes -2.99717
234
root 2.0605 7.35641 9.95135 -122.609 -4.35332 -189.678
lowerback 43.8092 -7.42124 9.38542
upperback 5.66201 -8.40929 -9.017
thorax -17.0017 -4.94072 -10.6311
lowerneck -26.2751 3.53592 13.6832
upperneck 16.2326 -1.704 3.81059
head 9.46252 0.364964 -1.08956
rclavicle 1.87852e-014 8.99167e-014
rhumerus -0.177621 14.899 -85.4049
rradius 93.6008
rwrist 44.3129
rhand -43.8421 -7.56241
rfingers 7.12502
rthumb -16.6692 -36.8667
lclavicle 1.87852e-014 8.99167e-014
lhumerus 20.3883 -12.0305 39.6727
lradius 97.7384
lwrist -30.1339
lhand -41.4835 22.1987
lfingers 7.12502
lthumb -14.3975 51.6794
rfemur -95.8962 -19.1027 30.0246
rtibia 143.373
rfoot 29.5295 -2.75924
rtoes -20.8645
lfemur -79.9302 1.555 -23.9263
ltibia 138.707
lfoot 4.48221 8.53853
ltoes -4.17811
235
root 2.09086 7.40514 9.84782 -122.029 -4.37218 -189.852
lowerback 43.7959 -7.31103 9.28949
upperback 5.42555 -8.27765 -9.03273
thorax -17.2584 -4.88768 -10.681
lowerneck -26.1552 3.41161 13.7334
upperneck 16.0401 -1.83917 3.79847
head 9.36603 0.292049 -1.1224
rclavicle 3.13086e-014 6.60866e-014
rhumerus -1.25148 14.5779 -85.9546
rradius 93.4284
rwrist 44.51
rhand -44.2566 -7.24965
rfingers 7.12502
rthumb -17.0682 -36.5199
lclavicle 3.13086e-014 6.60866e-014
lhumerus 23.1315 -10.9628 39.3689
lradius 97.3351
lwrist -29.714
lhand -40.0606 21.7313
lfingers 7.12502
lthumb -13.0262 51.3046
rfemur -95.5769 -18.341 29.8684
rtibia 142.853
rfoot 28.5186 -2.86718
rtoes -21.8507
lfemur -79.5503 1.3429 -23.5683
ltibia 137.765
lfoot 4.08094 8.96612
ltoes -5.14902
236
root 2.1179 7.45406 9.74475 -121.486 -4.40243 -189.903
lowerback 43.7903 -7.19332 9.23158
upperback 5.19272 -8.11882 -9.04385
thorax -17.5093 -4.82594 -10.7622
lowerneck -26.0237 3.2923 13.7834
upperneck 15.8732 -1.97329 3.8039
head 9.27764 0.222408 -1.14867
rclavicle 3.77691e-015 -5.42869e-014
rhumerus -2.26328 14.2874 -86.5015
rradius 93.2108
rwrist 44.7142
rhand -44.65 -6.9037
rfingers 7.12502
rthumb -17.4468 -36.1407
lclavicle 3.77691e-015 -5.42869e-014
lhumerus 25.87 -9.88997 39.1326
lradius 96.6556
lwrist -29.2638
lhand -38.4822 21.383
lfingers 7.12502
lthumb -11.5043 51.0473
rfemur -95.1307 -17.5632 29.7334
rtibia 142.356
rfoot 27.137 -3.03596
rtoes -22.8454
lfemur -79.1493 1.33349 -23.2082
ltibia 136.85
lfoot 3.81153 9.47038
ltoes -5.79728
237
root 2.142 7.50214 9.64286 -120.965 -4.47742 -189.844
lowerback 43.7671 -6.94341 8.90137
upperback 4.94688 -7.85194 -8.77009
thorax -17.6451 -4.67935 -10.4214
lowerneck -26.0018 3.21692 13.7009
upperneck 15.7956 -1.97351 3.63537
head 9.24005 0.199172 -1.19499
rclavicle 1.35174e-014 7.49791e-015
rhumerus -3.03611 14.2921 -86.6749
rradius 92.9151
rwrist 44.8842
rhand -45.0204 -6.52053
rfingers 7.12502
rthumb -17.8033 -35.7256
lclavicle 1.35174e-014 7.49791e-015
lhumerus 28.3709 -8.6447 39.3581
lradius 95.6699
lwrist -28.9083
lhand -36.8746 21.1599
lfingers 7.12502
lthumb -9.95366 50.9045
rfemur -94.583 -16.7676 29.6445
rtibia 141.875
rfoot 25.4358 -3.24778
rtoes -24.0099
lfemur -78.7645 1.48135 -22.812
ltibia 135.978
lfoot 3.69831 9.98574
ltoes -6.04392
238
root 2.1641 7.54872 9.54201 -120.446 -4.61013 -189.701
lowerback 43.691 -6.66018 8.48752
upperback 4.69691 -7.55073 -8.35781
thorax -17.7249 -4.50187 -9.8935
lowerneck -26.0124 3.16829 13.5136
upperneck 15.7793 -1.89425 3.41509
head 9.23192 0.206836 -1.23162
rclavicle 4.25399e-014 1.0858e-013
rhumerus -3.67346 14.484 -86.709
rradius 92.5519
rwrist 45.0589
rhand -45.3986 -6.10871
rfingers 7.12502
rthumb -18.1672 -35.2803
lclavicle 4.25399e-014 1.0858e-013
lhumerus 30.6479 -7.34516 39.7883
lradius 94.3836
lwrist -28.5946
lhand -35.3709 21.0684
lfingers 7.12502
lthumb -8.50268 50.8772
rfemur -93.9659 -15.9464 29.6018
rtibia 141.404
rfoot 23.5532 -3.50054
rtoes -25.2186
lfemur -78.4235 1.75409 -22.3729
ltibia 135.152
lfoot 3.70054 10.4883
ltoes -5.86605
